<svg width="669" height="750" fill="none" xmlns="http://www.w3.org/2000/svg"><path d="M455.739 704.391v43.411H139.374a12.093 12.093 0 0 0 6.671-10.762 12.105 12.105 0 0 0-6.671-10.844c4.016-2.068 6.588-6.18 6.671-10.679.082-4.653-2.514-8.988-6.671-11.126h316.365Z" fill="#F3E636" stroke="#241F20" stroke-width="1.6" stroke-linecap="round" stroke-linejoin="round"/><path d="M455.751 704.391v43.411h11.275v-43.411h-11.275Z" fill="#CBCBCB" stroke="#241F20" stroke-width="1.6" stroke-linecap="round" stroke-linejoin="round"/><path d="M467.014 704.391v43.411h11.275v-43.411h-11.275Z" fill="#CBCBCB" stroke="#241F20" stroke-width="1.6" stroke-linecap="round" stroke-linejoin="round"/><path d="M478.289 747.802v-43.411h2.783c11.98 0 21.693 9.727 21.693 21.699 0 11.984-9.725 21.7-21.693 21.7h-2.783v.012Z" fill="#FF7784" stroke="#241F20" stroke-width="1.6" stroke-linecap="round" stroke-linejoin="round"/><path d="M139.385 747.802a12.09 12.09 0 0 0 6.671-10.762 12.103 12.103 0 0 0-6.671-10.844c4.017-2.068 6.589-6.18 6.671-10.679.083-4.653-2.513-8.988-6.671-11.126L91.303 726.09l48.082 21.7v.012Z" fill="#FFBD9D" stroke="#241F20" stroke-width="1.6" stroke-linecap="round" stroke-linejoin="round"/><path d="M113.759 736.241v-20.29l-22.456 10.151 22.456 10.139Z" fill="#241F20" stroke="#241F20" stroke-width="1.6" stroke-linecap="round" stroke-linejoin="round"/><path d="M139.385 726.196h316.354" stroke="#241F20" stroke-width="1.6" stroke-linecap="round" stroke-linejoin="round"/><path d="M323.459 541.978c-6.459 0-11.709 3.054-11.709 9.516 0-6.462-5.238-9.516-11.71-9.516-6.471 0-11.709 3.054-11.709 9.516 0-6.462-5.238-9.516-11.709-9.516-6.472 0-11.71 5.239-11.71 11.713 0 30.981 8.057 49.309 33.649 49.309 28.915 0 36.584-23.309 36.584-49.309 0-6.462-5.238-11.713-11.709-11.713h.023Z" fill="#FF4A00" stroke="#241F20" stroke-width="1.6" stroke-linecap="round" stroke-linejoin="round"/><path d="M306.3 704.391h-11.509c23.019-33.801-23.02-67.602 0-101.403H306.3c-23.019 33.801 23.02 67.602 0 101.403Z" fill="#00A983" stroke="#241F20" stroke-width="1.6" stroke-miterlimit="10"/><path d="M288.143 624.042s-8.891 9.34-19.848 9.34c-10.958 0-19.849-9.34-19.849-9.34s8.891-9.34 19.849-9.34c10.957 0 19.848 9.34 19.848 9.34Z" fill="#00A983" stroke="#241F20" stroke-width="1.6" stroke-miterlimit="10"/><path d="M248.446 624.042h39.697" stroke="#241F20" stroke-width="1.6" stroke-miterlimit="10"/><path d="M344.329 648.161s-8.89 9.341-19.848 9.341c-10.958 0-19.849-9.341-19.849-9.341s8.891-9.34 19.849-9.34 19.848 9.34 19.848 9.34Z" fill="#00A983" stroke="#241F20" stroke-width="1.6" stroke-miterlimit="10"/><path d="M304.621 648.162h39.708" stroke="#241F20" stroke-width="1.6" stroke-miterlimit="10"/><path d="M212.038 408.396H55.623v207.269h156.415V408.396Z" fill="#FFBD9D" stroke="#241F20" stroke-width="1.6" stroke-miterlimit="10"/><path d="M196.382 429.132H71.255v165.82h125.127v-165.82Z" fill="#F2E8DB" stroke="#241F20" stroke-width="1.6" stroke-miterlimit="10"/><path d="M133.818 484.303c8.018 0 14.517-6.501 14.517-14.521s-6.499-14.521-14.517-14.521c-8.017 0-14.516 6.501-14.516 14.521s6.499 14.521 14.516 14.521Z" fill="#E3A2E3" stroke="#241F20" stroke-width="1.6" stroke-miterlimit="10"/><path d="M107.851 494.854c0 14.345 11.627 25.976 25.967 25.976 14.341 0 25.968-11.631 25.968-25.976h-51.935Z" fill="#FDB5BD" stroke="#241F20" stroke-width="1.6" stroke-miterlimit="10"/><path d="M98.737 533.707c0 19.385 15.703 35.093 35.081 35.093 19.379 0 35.082-15.708 35.082-35.093H98.737Z" fill="#FF7784" stroke="#241F20" stroke-width="1.6" stroke-miterlimit="10"/><path d="M471.195 621.057h27.917l-2.443-69.129 38.041.694-4.193-55.16a47.672 47.672 0 0 0-29.115 3.618 411.854 411.854 0 0 0-17.993 8.941c-19.237 10.174-23.336 14.333-25.826 19.197-4.486 8.765-2.76 17.811-1.045 26.188a1893.604 1893.604 0 0 0 14.657 65.628v.023Z" fill="#EFEA9B" stroke="#241F20" stroke-width="1.6" stroke-miterlimit="10"/><path d="M437.335 654.917h63.163c2.408-3.313 3.018-6.121 3.136-8.024.434-6.591-4.381-10.022-5.931-19.55a33.778 33.778 0 0 1-.435-6.285h-25.039c-1.715 7.39-4.921 11.513-8.022 13.969-9.008 7.096-20.647 2.772-25.474 9.775-2.208 3.207-1.95 7.248-1.398 10.127v-.012Z" fill="#FFA200" stroke="#241F20" stroke-width="1.6" stroke-miterlimit="10"/><path d="M554.758 309.93c-1.75 3.678-3.5 7.402-5.238 11.173a960.57 960.57 0 0 0-5.238 11.526c-3.465 8.083-2.56 12.3-1.045 14.662 2.795 4.37 8.867 4.3 11.862 10.127 1.174 2.279 2.783 16.73 2.795 18.152 6.824.811 11.932-2.796 20.588-3.842 1.985-.235 2.69-6.297 4.534-6.638.223-1.833 2.818-6.967 1.397-9.082-1.55-2.302-3.781-2.655-5.578-3.841-2.396-1.575-4.816-5.158-4.886-13.97 4.85.529 8.526-2.514 8.726-5.58.165-2.655-2.208-6.18-5.238-5.933-2.208.176-4.263 2.338-4.533 5.24-3.383-1.516-7.364-4.007-8.374-8.025-.447-1.75.058-2.267 0-5.24-.106-4.722-1.562-11.995-4.534-12.571-.587-.117-2.337-.188-5.238 3.842Z" fill="#B04D2A" stroke="#241F20" stroke-width="1.6" stroke-miterlimit="10"/><path d="M503.963 378.354h19.731c1.75-8.024 13.259-37.008 15.009-45.032 2.314-1.163 8.738-4.794 12.567-12.571 2.537-5.17 2.83-9.94 2.795-12.571-1.668-1.986-4.404-4.547-8.374-5.933-1.797-.635-3.253-1.14-4.885-.693-2.678.728-3.207 3.301-6.284 9.081-4.545 8.506-7.657 10.856-6.976 15.708a11.18 11.18 0 0 0 .857 2.973c-4.886 9.363-19.543 39.686-24.44 49.05v-.012Z" fill="#B04D2A" stroke="#241F20" stroke-width="1.6" stroke-miterlimit="10"/><path d="m555.803 324.24-4.885-15.309c2.266-6.262 5.156-8.353 7.328-9.128 3.054-1.093 4.44.505 9.772-.353 5.12-.822 5.731-2.596 8.726-2.091 3.159.529 3.112 2.62 7.681 5.581 6.049 3.935 9.278 2.326 11.169 5.58 1.797 3.102-.54 5.593 1.75 8.729 1.785 2.444 3.735 1.669 4.886 3.842 1.21 2.279-.94 3.149-1.75 10.128-.235 2.009-.376 4.699-2.091 7.683-.187.341-4.345 6.544-6.283 9.423a10.39 10.39 0 0 0-4.886 3.489 10.4 10.4 0 0 0-2.09 5.24c-3.347-.576-7.411-1.751-11.522-4.194-14.446-8.565-17.311-25.424-17.793-28.632l-.012.012Z" fill="#241F20" stroke="#241F20" stroke-width="1.6" stroke-miterlimit="10"/><path d="M596.393 339.936c1.139.541 2.29 1.093 3.429 1.633a.874.874 0 0 0 1.233-.611c.47-2.256.858-4.347 1.163-6.238.905-5.557.869-7.461 2.443-9.423 1.409-1.75 3.171-2.396 5.238-3.137 1.081-.387 9.325-3.395 15.35.694 2.103 1.433 1.234 1.891 5.239 6.638 5.097 6.05 7.692 6.696 7.681 9.422-.012 2.89-2.937 2.902-4.193 7.331-1.198 4.23.81 6.556-1.046 8.729-1.515 1.774-3.135.553-5.238 2.444-2.677 2.42-1.233 5.498-3.84 7.331-1.539 1.081-2.22.141-4.886 1.398-2.713 1.269-2.678 2.55-4.533 3.137-2.443.764-3.77-1.034-7.681-2.091-5.473-1.492-7.681.74-9.772-.693-1.773-1.222-3.089-4.805-.153-15.837a.879.879 0 0 0-.305-.917l-4.733-3.642a.868.868 0 0 1-.153-1.233l3.688-4.653a.873.873 0 0 1 1.057-.247l.012-.035Z" fill="#241F20" stroke="#241F20" stroke-width="1.6" stroke-miterlimit="10"/><path d="m529.108 506.661 75.906-.529c1.127 6.016 2.407 17.153-1.046 30.371-3.793 14.497-11.357 24.166-15.526 28.795v149.243h-27.741c-9.772-49.226-20.941-97.055-28.962-153.613-2.655-18.704-2.396-36.95-2.619-54.29l-.012.023Z" fill="#EFEA9B" stroke="#241F20" stroke-width="1.6" stroke-miterlimit="10"/><path d="M583.192 364.914c-12.954 2.103-20.988 7.237-25.298 10.644-5.062 3.995-8.679 8.765-15.703 18.152a279.704 279.704 0 0 0-12.39 17.975 20.674 20.674 0 0 0-2.972 5.416c-2.959 8.189.353 16.272 1.046 18.152 2.607 7.096 4.345 25.448.869 74.181 4.298.54 10.758 1.621 18.321 4.018 11.416 3.619 12.884 6.297 22.679 8.729 3.747.928 12.403 2.749 23.384 1.751a70.672 70.672 0 0 0 15.35-3.137c-7.305-25.694-8.397-46.278-8.021-60.4.54-20.478-.776-40.956-.693-61.445.011-3.231.047-11.091-4.193-19.55-3.629-7.249-8.879-11.878-12.391-14.486h.012ZM525.784 748.413h63.163c2.407-3.313 3.018-6.121 3.136-8.024.434-6.591-4.381-10.022-5.931-19.55a33.783 33.783 0 0 1-.435-6.286h-25.04c-1.714 7.39-4.921 11.514-8.021 13.969-9.008 7.097-20.647 2.773-25.474 9.775-2.208 3.208-1.95 7.249-1.398 10.128v-.012Z" fill="#FFA200" stroke="#241F20" stroke-width="1.6" stroke-miterlimit="10"/><path d="M502.236 389.01a348.579 348.579 0 0 0 28.269-2.796c10.665-1.504 21.434-2.056 32.11-3.489 6.178-.834 10.183-1.469 14.658.693 5.085 2.467 10.182 8.118 10.123 15.015-.176 21.124-22.138 15.285-44.324 15.708-9.102.176-35.903 1.75-40.836-3.49-.716-.763-4.533-4.828-4.533-10.82 0-5.698 3.453-9.669 4.533-10.821Z" fill="#FFA200" stroke="#241F20" stroke-width="1.6" stroke-miterlimit="10"/><path d="m499.1 378.989-2.325 8.706a.838.838 0 0 0 .869 1.057c1.445.047 2.913.07 4.404.082 7.893 0 15.221-.693 21.927-1.797a.801.801 0 0 0 .505-.212.8.8 0 0 0 .271-.47l1.315-6.978a.85.85 0 0 0-.834-.999h-25.333a.83.83 0 0 0-.81.623l.011-.012Z" fill="#FFA200" stroke="#241F20" stroke-width="1.6" stroke-miterlimit="10"/><path d="m441.773 276.542-7.005-1.714-5.923 24.216 7.004 1.714 5.924-24.216Z" fill="#E5E5E5" stroke="#241F20" stroke-width="1.6" stroke-miterlimit="10"/><path d="m532.514 319.717-96.682-18.951 5.931-24.214 94.497 27.856-3.746 15.309Z" fill="#E5E5E5" stroke="#241F20" stroke-width="1.6" stroke-miterlimit="10"/><path d="M580.702 182.528V1.588H341.088v180.94h239.614Z" fill="#FFBD9D" stroke="#241F20" stroke-width="1.6" stroke-miterlimit="10"/><path d="M556.743 164.435V19.68H365.059v144.755h191.684Z" fill="#F2E8DB" stroke="#241F20" stroke-width="1.6" stroke-miterlimit="10"/><path d="m556.755 19.68 23.959-18.093M365.059 19.68 341.1 1.587M556.755 164.435l23.959 18.093M365.059 164.435 341.1 182.528" stroke="#241F20" stroke-width="1.6" stroke-miterlimit="10"/><path d="M422.126 19.68c0 33.002 26.754 59.765 59.745 59.765s59.745-26.763 59.745-59.765h-119.49Z" fill="#F7ACDB" stroke="#241F20" stroke-width="1.6" stroke-miterlimit="10"/><path d="M523.517 19.68c0 23.016-18.65 41.673-41.658 41.673-23.008 0-41.658-18.657-41.658-41.673h83.316Z" fill="#E3A2E3" stroke="#241F20" stroke-width="1.6" stroke-miterlimit="10"/><path d="M412.942 137.096c13.705 0 24.816-11.114 24.816-24.825 0-13.71-11.111-24.825-24.816-24.825-13.706 0-24.817 11.115-24.817 24.825 0 13.711 11.111 24.825 24.817 24.825Z" fill="#FDB5BD" stroke="#241F20" stroke-width="1.6" stroke-miterlimit="10"/><path d="M481.871 152.757c6.856 0 12.414-5.56 12.414-12.418 0-6.859-5.558-12.419-12.414-12.419s-12.414 5.56-12.414 12.419c0 6.858 5.558 12.418 12.414 12.418Z" fill="#FF7784" stroke="#241F20" stroke-width="1.6" stroke-miterlimit="10"/><path d="m635.956 261.187-28.899-10.878-3.263 8.676 28.898 10.877 3.264-8.675ZM623.144 273.795l-14.477-5.449-.873 2.32 14.477 5.449.873-2.32Z" fill="#E5E5E5" stroke="#241F20" stroke-width="1.6" stroke-linejoin="round"/><path d="m622.279 276.113-14.477-5.449-.872 2.32 14.476 5.449.873-2.32Z" fill="#E5E5E5" stroke="#241F20" stroke-width="1.6" stroke-linejoin="round"/><path d="m606.937 272.977 14.477 5.449a7.106 7.106 0 0 1-9.152 4.149l-1.166-.439a7.11 7.11 0 0 1-4.148-9.155l-.011-.004ZM623.171 273.792l-14.481-5.452-4.874-9.363 28.891 10.879-9.536 3.936Z" fill="#E5E5E5" stroke="#241F20" stroke-width="1.6" stroke-linejoin="round"/><path d="M665.393 228.465c6.072-16.131-1.973-34.106-17.958-40.38-16.055-6.297-34.365 1.645-40.718 17.682-4.123 10.397-2.326 21.617 3.723 30.029a4.429 4.429 0 0 1 .552 4.124l-3.911 10.386 28.891 10.879 3.911-10.386a4.4 4.4 0 0 1 3.124-2.737c9.913-2.291 18.545-9.34 22.397-19.585l-.011-.012Z" fill="#F3E636" stroke="#241F20" stroke-width="1.6" stroke-linejoin="round"/><path d="m605.436 254.641 28.904 10.868M629.831 223.118c.74-1.968-.284-4.174-2.287-4.928-2.004-.754-4.228.229-4.968 2.197-.74 1.968.284 4.174 2.287 4.928 2.004.754 4.228-.23 4.968-2.197ZM644.333 228.579c.74-1.968-.284-4.174-2.287-4.928-2.004-.754-4.228.229-4.968 2.197-.74 1.968.284 4.174 2.288 4.928 2.003.754 4.227-.23 4.967-2.197Z" stroke="#241F20" stroke-width="1.6" stroke-linejoin="round"/><path d="M637.065 225.845c-.74 1.962-2.96 2.949-4.968 2.197-2.009-.752-3.019-2.96-2.279-4.922M632.108 228.042l-10.441 27.751" stroke="#241F20" stroke-width="1.6" stroke-linejoin="round"/><path d="M264.067 4.889H45.604c1.715.07 7.928.552 13.248 5.498 6.378 5.933 6.577 13.746 6.59 15.097v275.141H285.97V26.8c0-12.101-9.807-21.911-21.903-21.911Z" fill="#F2D3C1" stroke="#241F20" stroke-width="1.6" stroke-miterlimit="10"/><path d="M45.604 4.889h-6.072c-8.432 0-15.268 6.837-15.268 15.273V62.41h41.177V25.484c0-8.436-7.082-20.595-19.837-20.595Z" fill="#F2D3C1" stroke="#241F20" stroke-width="1.6" stroke-miterlimit="10"/><path d="M90.786 367.346c0-36.045-10.582-46.631-46.614-46.631 36.032 0 46.614-10.585 46.614-46.63 0 36.045 10.582 46.63 46.615 46.63-36.033 0-46.615 10.586-46.615 46.631Z" fill="#F3E636"/><path d="M90.786 367.346c0-36.045-10.582-46.631-46.614-46.631 36.032 0 46.614-10.585 46.614-46.63 0 36.045 10.582 46.63 46.615 46.63-36.033 0-46.615 10.586-46.615 46.631Z" stroke="#241F20" stroke-width="1.6" stroke-miterlimit="10"/><path d="M326.231 279.149c0-15.59-4.58-20.172-20.166-20.172 15.586 0 20.166-4.582 20.166-20.173 0 15.591 4.58 20.173 20.166 20.173-15.586 0-20.166 4.582-20.166 20.172Z" fill="#F3E636"/><path d="M326.231 279.149c0-15.59-4.58-20.172-20.166-20.172 15.586 0 20.166-4.582 20.166-20.173 0 15.591 4.58 20.173 20.166 20.173-15.586 0-20.166 4.582-20.166 20.172Z" stroke="#241F20" stroke-width="1.6" stroke-miterlimit="10"/><path d="M20.166 280.241c0-15.59-4.58-20.172-20.166-20.172 15.585 0 20.166-4.582 20.166-20.173 0 15.591 4.58 20.173 20.165 20.173-15.585 0-20.165 4.582-20.165 20.172Z" fill="#F3E636"/><path d="M20.166 280.241c0-15.59-4.58-20.172-20.166-20.172 15.585 0 20.166-4.582 20.166-20.173 0 15.591 4.58 20.173 20.165 20.173-15.585 0-20.165 4.582-20.165 20.172Z" stroke="#241F20" stroke-width="1.6" stroke-miterlimit="10"/><path d="M180.926 83.193c8.668 0 16.231 1.316 22.691 3.96 6.459 2.631 11.545 6.438 15.256 11.396 3.7 4.958 5.555 11.02 5.555 18.175 0 7.155-1.597 13.534-4.803 18.363-3.206 4.84-7.505 8.483-12.896 10.926-5.402 2.444-11.369 4.054-17.887 4.805l-.564 19.033h-19.402v-28.443c8.914-1.128 15.82-2.632 20.718-4.523 4.897-1.88 8.35-4.242 10.359-7.061 2.008-2.832 3.018-6.251 3.018-10.269s-.846-7.249-2.537-10.08c-1.691-2.831-4.275-4.958-7.716-6.403-3.453-1.445-7.822-2.162-13.084-2.162-7.411 0-13.436 2.068-18.075 6.215-4.651 4.148-7.411 9.928-8.291 17.33l-18.639-8.483c1.386-6.532 4.075-12.242 8.104-17.141 4.016-4.9 9.231-8.73 15.632-11.49 6.401-2.761 13.929-4.148 22.596-4.148h-.035Zm-2.454 101.356c4.263 0 7.692 1.222 10.264 3.677 2.572 2.444 3.864 5.686 3.864 9.704 0 4.019-1.292 7.226-3.864 9.611-2.572 2.385-6.001 3.583-10.264 3.583-4.264 0-7.505-1.198-10.077-3.583-2.572-2.385-3.864-5.592-3.864-9.611 0-4.018 1.28-7.248 3.864-9.704 2.572-2.444 5.931-3.677 10.077-3.677Z" fill="#FF4A00" stroke="#241F20" stroke-width="1.6" stroke-miterlimit="10"/><path d="M383.662 675.724c-7.81 0-14.129 6.332-14.129 14.133 0 7.801 6.331 14.134 14.129 14.134h61.237v-28.279h-61.237v.012Z" fill="#FF7784" stroke="#231F20" stroke-width="1.6" stroke-linecap="round" stroke-linejoin="round"/><path d="m494.273 675.724-60.414.058c-7.258.588-12.978 6.662-12.978 14.075 0 7.414 5.72 13.488 12.978 14.075l60.414.059v-4.089h-49.327a14.086 14.086 0 0 0 4.204-10.056c0-3.936-1.609-7.496-4.204-10.057h49.327V675.7v.024Z" fill="#FF7784" stroke="#231F20" stroke-width="1.6" stroke-linecap="round" stroke-linejoin="round"/><path d="M437.77 699.914h49.48c-.646-.67-4.463-4.77-4.087-10.938.305-5.075 3.253-8.318 4.087-9.176h-49.48c-5.555 0-10.054 4.5-10.054 10.057s4.499 10.057 10.054 10.057Z" fill="#F1F2F2" stroke="#231F20" stroke-width="1.6" stroke-linecap="round" stroke-linejoin="round"/><path d="M501.344 665.326H391.026v10.398h110.318v-10.398Z" fill="#FDB5BD" stroke="#231F20" stroke-width="1.6" stroke-linecap="round" stroke-linejoin="round"/><path d="M492.077 654.917H381.76v10.398h110.317v-10.398Z" fill="#E3A2E3" stroke="#231F20" stroke-width="1.6" stroke-linecap="round" stroke-linejoin="round"/></svg>
