<svg width="164" height="73" viewBox="0 0 164 73" fill="none" xmlns="http://www.w3.org/2000/svg">
<path d="M133.593 43.0195L133.53 43.2613L133.593 43.0195ZM124.941 56.2331L125.171 56.1348L124.941 56.2331ZM153.843 72.8654C153.978 72.8972 154.112 72.814 154.144 72.6796C154.176 72.5453 154.093 72.4106 153.959 72.3788L153.843 72.8654ZM136.193 56.461L136.352 56.6536L136.193 56.461ZM134.441 43.3232L134.338 43.5509L134.441 43.3232ZM75.7304 41.5599C75.8088 41.6215 75.8875 41.6829 75.9665 41.7443L76.2733 41.3496C76.195 41.2886 76.1169 41.2277 76.0391 41.1666L75.7304 41.5599ZM76.4439 42.1119C76.6042 42.2341 76.7656 42.3561 76.9282 42.4777L77.2278 42.0774C77.0664 41.9566 76.9062 41.8356 76.7471 41.7143L76.4439 42.1119ZM77.419 42.8416C77.5798 42.9597 77.7417 43.0776 77.9046 43.1951L78.1972 42.7897C78.0354 42.6729 77.8747 42.5559 77.715 42.4386L77.419 42.8416ZM78.3964 43.5469C78.5613 43.6638 78.7273 43.7805 78.8942 43.8968L79.18 43.4865C79.0142 43.371 78.8494 43.2552 78.6856 43.139L78.3964 43.5469ZM79.3928 44.2413C79.558 44.3545 79.7242 44.4674 79.8912 44.5799L80.1706 44.1653C80.0046 44.0534 79.8395 43.9413 79.6754 43.8288L79.3928 44.2413ZM80.395 44.9166C80.5638 45.0285 80.7334 45.1401 80.9039 45.2513L81.1771 44.8325C81.0076 44.7219 80.839 44.6111 80.6712 44.4999L80.395 44.9166ZM81.4101 45.5788C81.579 45.6872 81.7488 45.7954 81.9194 45.9032L82.1865 45.4805C82.0169 45.3733 81.8481 45.2658 81.6802 45.158L81.4101 45.5788ZM82.4333 46.2254C82.605 46.3322 82.7775 46.4387 82.9507 46.5448L83.2119 46.1185C83.0396 46.013 82.8682 45.9071 82.6974 45.8009L82.4333 46.2254ZM83.4653 46.8577C83.6375 46.9616 83.8104 47.0652 83.984 47.1683L84.2394 46.7385C84.0668 46.6359 83.8949 46.533 83.7236 46.4296L83.4653 46.8577ZM84.5066 47.4767C84.6807 47.5786 84.8554 47.6801 85.0307 47.7813L85.2805 47.3482C85.1061 47.2476 84.9324 47.1466 84.7593 47.0452L84.5066 47.4767ZM85.5541 48.081C85.7291 48.1805 85.9048 48.2796 86.081 48.3783L86.3254 47.9421C86.1501 47.8439 85.9753 47.7453 85.8012 47.6463L85.5541 48.081ZM86.6113 48.6732C86.7877 48.7705 86.9645 48.8674 87.1419 48.9639L87.3808 48.5247C87.2043 48.4287 87.0284 48.3323 86.853 48.2355L86.6113 48.6732ZM87.6732 49.2508C87.8508 49.3461 88.0289 49.4408 88.2074 49.5352L88.441 49.0931C88.2633 48.9992 88.0861 48.9049 87.9094 48.8102L87.6732 49.2508ZM88.7446 49.8169C88.9231 49.9099 89.1021 50.0025 89.2815 50.0946L89.5098 49.6497C89.3313 49.5581 89.1532 49.466 88.9755 49.3735L88.7446 49.8169ZM89.8199 50.3689C89.9998 50.4599 90.1801 50.5504 90.3608 50.6405L90.5839 50.193C90.4041 50.1034 90.2246 50.0133 90.0456 49.9227L89.8199 50.3689ZM90.9041 50.9093C91.0848 50.9981 91.2659 51.0864 91.4473 51.1743L91.6652 50.7242C91.4846 50.6368 91.3044 50.5489 91.1245 50.4605L90.9041 50.9093ZM91.9923 51.4361C92.1743 51.5229 92.3566 51.6093 92.5392 51.6951L92.7519 51.2426C92.5701 51.1571 92.3887 51.0712 92.2076 50.9848L91.9923 51.4361ZM93.0881 51.9511C93.271 52.0358 93.4541 52.1199 93.6375 52.2036L93.845 51.7487C93.6625 51.6654 93.4802 51.5817 93.2982 51.4974L93.0881 51.9511ZM94.1886 52.453C94.3725 52.5357 94.5567 52.6178 94.7412 52.6994L94.9434 52.2421C94.7599 52.1609 94.5765 52.0792 94.3935 51.9969L94.1886 52.453ZM95.2952 52.9426C95.4802 53.0231 95.6653 53.1032 95.8507 53.1827L96.0478 52.7231C95.8633 52.644 95.679 52.5644 95.4949 52.4842L95.2952 52.9426ZM96.4075 53.4195C96.5932 53.498 96.7792 53.5758 96.9653 53.6531L97.1571 53.1914C96.9719 53.1144 96.7868 53.0369 96.6019 52.9589L96.4075 53.4195ZM97.5244 53.8835C97.7114 53.9599 97.8985 54.0357 98.0858 54.111L98.2723 53.6471C98.0859 53.5722 97.8996 53.4967 97.7136 53.4206L97.5244 53.8835ZM98.6479 54.3351C98.8354 54.4092 99.0231 54.4827 99.2108 54.5556L99.3919 54.0896C99.2051 54.017 99.0183 53.9438 98.8317 53.8701L98.6479 54.3351ZM99.7749 54.7729C99.9638 54.8451 100.153 54.9166 100.342 54.9875L100.517 54.5194C100.329 54.4488 100.141 54.3776 99.9533 54.3058L99.7749 54.7729ZM100.909 55.1984C101.098 55.2681 101.287 55.3371 101.477 55.4055L101.647 54.9353C101.458 54.8673 101.27 54.7985 101.082 54.7292L100.909 55.1984ZM102.046 55.6095C102.237 55.6772 102.427 55.7442 102.618 55.8106L102.782 55.3384C102.593 55.2723 102.403 55.2056 102.213 55.1383L102.046 55.6095ZM103.19 56.0077C103.381 56.0728 103.572 56.1372 103.762 56.2009L103.921 55.7267C103.731 55.6633 103.541 55.5992 103.352 55.5345L103.19 56.0077ZM104.337 56.391C104.529 56.454 104.722 56.5163 104.914 56.5779L105.067 56.1017C104.875 56.0404 104.684 55.9785 104.492 55.9158L104.337 56.391ZM105.491 56.7605C105.683 56.8207 105.875 56.8802 106.067 56.9389L106.213 56.4608C106.022 56.4024 105.831 56.3433 105.64 56.2834L105.491 56.7605ZM106.648 57.1145C106.842 57.1725 107.036 57.2298 107.229 57.2863L107.369 56.8063C107.177 56.7501 106.984 56.6931 106.791 56.6355L106.648 57.1145ZM107.81 57.4535C108.004 57.5084 108.197 57.5626 108.39 57.616L108.523 57.1341C108.331 57.081 108.139 57.0272 107.947 56.9725L107.81 57.4535ZM108.977 57.7763C109.173 57.8289 109.368 57.8807 109.563 57.9317L109.69 57.448C109.496 57.3973 109.302 57.3458 109.107 57.2934L108.977 57.7763ZM110.148 58.0822C110.344 58.1317 110.539 58.1805 110.734 58.2283L110.853 57.7427C110.659 57.6952 110.465 57.6468 110.271 57.5975L110.148 58.0822ZM111.326 58.3713C111.523 58.418 111.719 58.4639 111.915 58.5088L112.027 58.0215C111.832 57.9768 111.637 57.9312 111.441 57.8848L111.326 58.3713ZM112.503 58.641C112.701 58.6848 112.899 58.7276 113.096 58.7694L113.2 58.2803C113.004 58.2387 112.808 58.1962 112.611 58.1528L112.503 58.641ZM113.692 58.8931C113.89 58.9334 114.087 58.9726 114.284 59.0109L114.38 58.5201C114.184 58.4821 113.988 58.4431 113.791 58.4031L113.692 58.8931ZM114.875 59.1231C115.076 59.1603 115.277 59.1964 115.477 59.2315L115.563 58.739C115.365 58.7042 115.166 58.6683 114.966 58.6314L114.875 59.1231ZM116.075 59.3336C116.273 59.3666 116.471 59.3985 116.669 59.4293L116.746 58.9352C116.55 58.9047 116.354 58.873 116.156 58.8403L116.075 59.3336ZM117.27 59.5199C117.472 59.5493 117.673 59.5775 117.873 59.6046L117.94 59.1091C117.741 59.0822 117.542 59.0543 117.342 59.0251L117.27 59.5199ZM118.472 59.6822C118.672 59.7071 118.872 59.7308 119.071 59.7532L119.127 59.2564C118.93 59.2341 118.732 59.2107 118.534 59.186L118.472 59.6822ZM119.679 59.8183C119.881 59.8388 120.082 59.8579 120.282 59.8757L120.327 59.3777C120.129 59.36 119.929 59.3411 119.73 59.3209L119.679 59.8183ZM120.88 59.9252C121.085 59.941 121.289 59.9553 121.493 59.9681L121.524 59.4691C121.323 59.4564 121.121 59.4422 120.918 59.4267L120.88 59.9252ZM122.099 60.0025C122.3 60.0125 122.5 60.0211 122.699 60.0282L122.717 59.5285C122.521 59.5215 122.323 59.513 122.124 59.5031L122.099 60.0025ZM123.312 60.0455C123.516 60.0497 123.719 60.0524 123.92 60.0534L123.923 59.5534C123.724 59.5524 123.524 59.5498 123.322 59.5456L123.312 60.0455ZM124.522 60.0517C124.727 60.0494 124.932 60.0454 125.134 60.0397L125.12 59.5399C124.92 59.5455 124.719 59.5495 124.516 59.5517L124.522 60.0517ZM125.743 60.0169C125.945 60.0076 126.145 59.9964 126.344 59.9834L126.311 59.4845C126.116 59.4972 125.919 59.5082 125.72 59.5175L125.743 60.0169ZM126.957 59.9371C127.161 59.9196 127.363 59.9001 127.563 59.8785L127.51 59.3814C127.313 59.4025 127.114 59.4217 126.914 59.4389L126.957 59.9371ZM128.161 59.8076C128.367 59.7808 128.57 59.7518 128.772 59.7205L128.696 59.2264C128.498 59.257 128.298 59.2855 128.096 59.3117L128.161 59.8076ZM129.372 59.6198C129.573 59.5833 129.772 59.5445 129.969 59.5032L129.866 59.0138C129.674 59.0541 129.479 59.0921 129.282 59.1278L129.372 59.6198ZM130.569 59.3683C130.767 59.3207 130.962 59.2706 131.155 59.2178L131.023 58.7355C130.835 58.7869 130.645 58.8357 130.452 58.8821L130.569 59.3683ZM131.747 59.0454C131.943 58.9846 132.137 58.9208 132.328 58.8542L132.163 58.3821C131.978 58.4468 131.79 58.5087 131.599 58.5678L131.747 59.0454ZM132.9 58.6421C133.094 58.5663 133.284 58.4872 133.47 58.4049L133.269 57.9474C133.088 58.0269 132.905 58.1033 132.718 58.1767L132.9 58.6421ZM134.021 58.1479C134.208 58.0557 134.392 57.9598 134.571 57.8603L134.329 57.4228C134.156 57.5184 133.98 57.6107 133.8 57.6996L134.021 58.1479ZM135.1 57.5505C135.276 57.4413 135.449 57.3283 135.617 57.2113L135.331 56.8008C135.17 56.9126 135.006 57.0209 134.837 57.1255L135.1 57.5505ZM136.113 56.8455C136.194 56.7826 136.273 56.7186 136.352 56.6536L136.033 56.2684C135.958 56.3303 135.882 56.3914 135.806 56.4514L136.113 56.8455ZM136.352 56.6536C136.432 56.5871 136.511 56.5192 136.587 56.4498L136.252 56.0793C136.181 56.1436 136.108 56.2067 136.033 56.2684L136.352 56.6536ZM137.028 56.0133C137.169 55.8606 137.302 55.7025 137.428 55.5396L137.032 55.2341C136.915 55.3855 136.792 55.5323 136.661 55.6741L137.028 56.0133ZM137.785 55.0326C137.897 54.8584 138.001 54.6799 138.097 54.4976L137.655 54.264C137.566 54.434 137.469 54.6004 137.364 54.7625L137.785 55.0326ZM138.364 53.9392C138.445 53.7498 138.519 53.5572 138.585 53.3619L138.111 53.2018C138.049 53.3848 137.98 53.5652 137.904 53.7424L138.364 53.9392ZM138.76 52.77C138.811 52.571 138.854 52.3699 138.89 52.1673L138.398 52.0794C138.364 52.2701 138.323 52.4592 138.275 52.6463L138.76 52.77ZM138.977 51.5572C138.999 51.3532 139.013 51.1483 139.021 50.943L138.521 50.9248C138.514 51.1187 138.5 51.3121 138.48 51.5045L138.977 51.5572ZM139.022 50.3275C139.016 50.1226 139.002 49.9178 138.982 49.7136L138.484 49.763C138.504 49.956 138.516 50.1497 138.522 50.3434L139.022 50.3275ZM138.901 49.1038C138.867 48.9014 138.826 48.7002 138.779 48.5007L138.292 48.6163C138.337 48.8049 138.375 48.9951 138.408 49.1864L138.901 49.1038ZM138.616 47.9072C138.555 47.7109 138.488 47.517 138.413 47.3257L137.947 47.5069C138.017 47.6872 138.081 47.8703 138.139 48.0556L138.616 47.9072ZM138.17 46.7596C138.082 46.5736 137.987 46.3909 137.886 46.2122L137.451 46.4585C137.546 46.6265 137.635 46.7983 137.718 46.9735L138.17 46.7596ZM137.562 45.6868C137.447 45.5157 137.325 45.3491 137.197 45.1875L136.805 45.4979C136.925 45.6491 137.039 45.8051 137.147 45.9655L137.562 45.6868ZM136.794 44.7185C136.653 44.5678 136.506 44.4228 136.352 44.284L136.017 44.6549C136.16 44.7842 136.297 44.9193 136.429 45.0598L136.794 44.7185ZM135.875 43.8884C135.711 43.7641 135.541 43.6465 135.364 43.5361L135.099 43.9598C135.262 44.0623 135.421 44.1715 135.573 44.287L135.875 43.8884ZM134.825 43.2305C134.733 43.1836 134.639 43.1386 134.544 43.0955L134.338 43.5509C134.426 43.5908 134.513 43.6326 134.598 43.6761L134.825 43.2305ZM134.544 43.0955C134.473 43.0631 134.401 43.0321 134.328 43.0025L134.14 43.4656C134.206 43.4927 134.272 43.5211 134.338 43.5509L134.544 43.0955ZM133.884 42.843C133.809 42.8196 133.733 42.7978 133.657 42.7777L133.53 43.2613C133.599 43.2794 133.667 43.2991 133.735 43.3204L133.884 42.843ZM133.657 42.7777C133.56 42.7522 133.46 42.7298 133.357 42.7103L133.264 43.2016C133.356 43.219 133.445 43.2389 133.53 43.2613L133.657 42.7777ZM132.75 42.6321C132.555 42.6177 132.352 42.6121 132.144 42.6153L132.152 43.1153C132.346 43.1122 132.534 43.1175 132.713 43.1308L132.75 42.6321ZM131.541 42.6484C131.345 42.6665 131.146 42.6918 130.944 42.7244L131.024 43.218C131.215 43.1871 131.403 43.1633 131.587 43.1463L131.541 42.6484ZM130.356 42.8389C130.164 42.8826 129.97 42.9327 129.776 42.9895L129.916 43.4694C130.101 43.4155 130.285 43.3679 130.467 43.3265L130.356 42.8389ZM129.207 43.1746C129.02 43.2413 128.834 43.3141 128.649 43.3932L128.845 43.8531C129.021 43.7779 129.198 43.7087 129.375 43.6453L129.207 43.1746ZM128.105 43.6451C127.928 43.734 127.751 43.8289 127.577 43.93L127.829 44.3623C127.993 44.2666 128.16 44.1766 128.329 44.0922L128.105 43.6451ZM127.068 44.2479C126.903 44.3589 126.74 44.4758 126.581 44.5989L126.887 44.9946C127.037 44.8785 127.191 44.7681 127.347 44.6632L127.068 44.2479ZM126.118 44.9828C125.969 45.1156 125.824 45.2544 125.683 45.3992L126.042 45.7474C126.174 45.6115 126.31 45.4811 126.451 45.3562L126.118 44.9828ZM125.28 45.8471C125.152 46.0005 125.029 46.1597 124.912 46.3249L125.32 46.6143C125.429 46.4599 125.544 46.3109 125.664 46.1673L125.28 45.8471ZM124.582 46.8305C124.48 47.0016 124.384 47.1784 124.294 47.3608L124.743 47.5817C124.827 47.4115 124.916 47.2465 125.012 47.0866L124.582 46.8305ZM124.049 47.9123C123.976 48.0967 123.909 48.2863 123.849 48.4811L124.327 48.6286C124.383 48.4464 124.446 48.2691 124.514 48.0968L124.049 47.9123ZM123.693 49.0634C123.65 49.2563 123.612 49.4537 123.582 49.6557L124.076 49.7305C124.105 49.5404 124.14 49.355 124.181 49.1741L123.693 49.0634ZM123.512 50.2549C123.497 50.4501 123.487 50.6493 123.484 50.8523L123.984 50.8604C123.987 50.6679 123.996 50.4796 124.011 50.2953L123.512 50.2549ZM123.492 51.449C123.501 51.6444 123.515 51.8432 123.536 52.0454L124.033 51.9952C124.014 51.8022 124 51.6127 123.992 51.4268L123.492 51.449ZM123.612 52.6419C123.641 52.833 123.676 53.027 123.716 53.2239L124.206 53.1244C124.168 52.9351 124.134 52.7489 124.106 52.5658L123.612 52.6419ZM123.847 53.8032C123.895 53.9937 123.947 54.1868 124.005 54.3826L124.484 54.2417C124.429 54.0525 124.378 53.8659 124.332 53.6822L123.847 53.8032ZM124.18 54.9417C124.242 55.1266 124.308 55.3138 124.379 55.5032L124.847 55.3284C124.779 55.1443 124.714 54.9626 124.654 54.7832L124.18 54.9417ZM124.594 56.0523C124.632 56.1449 124.671 56.2379 124.711 56.3315L125.171 56.1348C125.132 56.0435 125.094 55.9528 125.057 55.8627L124.594 56.0523ZM124.711 56.3315C124.751 56.4264 124.794 56.5208 124.837 56.6149L125.291 56.4044C125.249 56.3148 125.209 56.225 125.171 56.1348L124.711 56.3315ZM125.117 57.1741C125.214 57.3556 125.317 57.5355 125.425 57.7138L125.853 57.4546C125.749 57.2836 125.65 57.1114 125.558 56.9379L125.117 57.1741ZM125.762 58.24C125.877 58.4096 125.996 58.5776 126.12 58.7441L126.521 58.4457C126.402 58.285 126.287 58.1231 126.177 57.96L125.762 58.24ZM126.503 59.2373C126.632 59.3955 126.764 59.5522 126.9 59.7076L127.276 59.3781C127.144 59.2273 127.016 59.0754 126.892 58.9224L126.503 59.2373ZM127.319 60.1689C127.459 60.3169 127.601 60.4636 127.747 60.609L128.1 60.2548C127.958 60.1131 127.819 59.9702 127.683 59.8263L127.319 60.1689ZM128.195 61.0412C128.343 61.18 128.494 61.3176 128.647 61.4541L128.979 61.08C128.829 60.9466 128.681 60.812 128.537 60.6764L128.195 61.0412ZM129.117 61.8597C129.272 61.9904 129.43 62.12 129.59 62.2485L129.903 61.8584C129.746 61.7324 129.591 61.6053 129.439 61.4772L129.117 61.8597ZM130.077 62.6299C130.238 62.7536 130.402 62.8761 130.567 62.9976L130.863 62.5944C130.7 62.475 130.54 62.3545 130.381 62.233L130.077 62.6299ZM131.068 63.3573C131.235 63.4746 131.403 63.5909 131.573 63.7061L131.854 63.2921C131.686 63.1786 131.52 63.064 131.356 62.9485L131.068 63.3573ZM132.085 64.0464C132.256 64.158 132.429 64.2686 132.602 64.3781L132.869 63.9551C132.697 63.8469 132.527 63.7378 132.358 63.6276L132.085 64.0464ZM133.124 64.701C133.299 64.8074 133.474 64.9127 133.651 65.0171L133.905 64.5863C133.73 64.4832 133.556 64.379 133.384 64.2739L133.124 64.701ZM134.181 65.3244C134.359 65.4259 134.537 65.5263 134.717 65.6258L134.959 65.1885C134.782 65.09 134.605 64.9906 134.429 64.8903L134.181 65.3244ZM135.254 65.9194C135.434 66.0162 135.615 66.1121 135.796 66.2069L136.028 65.7639C135.848 65.67 135.669 65.575 135.491 65.4791L135.254 65.9194ZM136.341 66.4882C136.523 66.5809 136.705 66.6726 136.888 66.7633L137.111 66.3154C136.929 66.2254 136.748 66.1345 136.568 66.0426L136.341 66.4882ZM137.439 67.0328C137.623 67.1218 137.807 67.2098 137.992 67.2968L138.205 66.8445C138.022 66.7582 137.839 66.6709 137.656 66.5826L137.439 67.0328ZM138.546 67.555C138.733 67.6406 138.919 67.7253 139.105 67.8089L139.31 67.3528C139.125 67.2698 138.94 67.1857 138.755 67.1007L138.546 67.555ZM139.664 68.0568C139.852 68.1392 140.039 68.2206 140.227 68.301L140.424 67.8414C140.238 67.7616 140.051 67.6808 139.865 67.5989L139.664 68.0568ZM140.79 68.5396C140.979 68.6189 141.168 68.6971 141.356 68.7743L141.546 68.3116C141.359 68.235 141.171 68.1572 140.983 68.0784L140.79 68.5396ZM141.923 69.0043C142.113 69.0806 142.303 69.1557 142.492 69.2298L142.674 68.7644C142.487 68.6908 142.298 68.616 142.109 68.5402L141.923 69.0043ZM143.063 69.4519C143.254 69.5253 143.444 69.5975 143.633 69.6686L143.809 69.2007C143.622 69.13 143.433 69.0582 143.243 68.9852L143.063 69.4519ZM144.209 69.8832C144.401 69.9539 144.592 70.0234 144.781 70.0916L144.95 69.6213C144.763 69.5534 144.573 69.4844 144.382 69.414L144.209 69.8832ZM145.361 70.2989C145.554 70.3671 145.745 70.434 145.934 70.4996L146.098 70.0271C145.91 69.9619 145.719 69.8954 145.528 69.8275L145.361 70.2989ZM146.517 70.6996C146.712 70.7656 146.904 70.8302 147.094 70.8932L147.251 70.4188C147.063 70.356 146.872 70.2918 146.678 70.2261L146.517 70.6996ZM147.678 71.0856C147.875 71.1497 148.069 71.2122 148.26 71.2729L148.411 70.7966C148.222 70.7361 148.029 70.674 147.833 70.6102L147.678 71.0856ZM148.842 71.4567C149.042 71.5193 149.239 71.5799 149.43 71.6384L149.576 71.1603C149.386 71.102 149.19 71.0417 148.991 70.9794L148.842 71.4567ZM150.009 71.8133C150.213 71.8742 150.41 71.9324 150.6 71.988L150.74 71.5081C150.551 71.4527 150.355 71.3948 150.152 71.3343L150.009 71.8133ZM151.192 72.1587C151.398 72.2175 151.595 72.2727 151.78 72.3242L151.914 71.8424C151.729 71.7912 151.534 71.7363 151.329 71.6778L151.192 72.1587ZM152.369 72.4856C152.59 72.5452 152.789 72.5979 152.964 72.6436L153.091 72.1598C152.917 72.1145 152.719 72.0621 152.5 72.0029L152.369 72.4856ZM153.548 72.7929C153.644 72.8169 153.718 72.835 153.767 72.8471C153.792 72.8531 153.811 72.8577 153.824 72.8607C153.83 72.8622 153.835 72.8634 153.838 72.8642C153.84 72.8646 153.841 72.8649 153.842 72.8651C153.843 72.8652 153.843 72.8652 153.843 72.8653C153.843 72.8653 153.843 72.8653 153.843 72.8654C153.843 72.8654 153.843 72.8654 153.843 72.8654C153.843 72.8654 153.843 72.8654 153.843 72.8654L153.843 72.8654C153.843 72.8654 153.843 72.8654 153.901 72.6221C153.959 72.3788 153.959 72.3788 153.959 72.3788C153.959 72.3788 153.958 72.3788 153.958 72.3788C153.958 72.3788 153.958 72.3788 153.958 72.3788C153.958 72.3787 153.958 72.3787 153.958 72.3786C153.957 72.3784 153.956 72.3781 153.954 72.3778C153.951 72.3771 153.947 72.376 153.94 72.3745C153.928 72.3716 153.91 72.3671 153.885 72.3612C153.837 72.3494 153.764 72.3316 153.669 72.3078L153.548 72.7929Z" fill="black"/>
<g clip-path="url(#clip0_1750_21877)">
<path d="M75.8996 35.9518L83.876 31.0053L51.1569 20.5923L75.8996 35.9518Z" fill="#FFFCE9" stroke="black" stroke-width="0.5" stroke-linecap="round" stroke-linejoin="round"/>
<path d="M51.1577 20.5923L75.9004 35.9518V41.3575L70.4105 36.1122" fill="white"/>
<path d="M51.1577 20.5923L75.9004 35.9518V41.3575L70.4105 36.1122" stroke="black" stroke-width="0.5" stroke-linecap="round" stroke-linejoin="round"/>
<path d="M51.1577 20.5923L75.9004 35.9518L65.5091 42.3921L51.1577 20.5923Z" fill="#FFFCE9" stroke="black" stroke-width="0.5" stroke-linecap="round" stroke-linejoin="round"/>
<path d="M45 14L47.5 16.5" stroke="black" stroke-width="0.5" stroke-linecap="round"/>
<path d="M43 22H46.5" stroke="black" stroke-width="0.5" stroke-linecap="round"/>
<path d="M53 16L53 13" stroke="black" stroke-width="0.5" stroke-linecap="round"/>
</g>
<defs>
<clipPath id="clip0_1750_21877">
<rect width="59" height="37" fill="white" transform="matrix(-1 0 0 1 91 6)"/>
</clipPath>
</defs>
</svg>
